# This file uses centimeters as units for non-parametric coordinates.

mtllib E.mtl
g default
v -63.267544 40.908090 -452.120104
v -63.267544 43.050460 -452.120104
v -63.267544 40.908090 -459.626129
v -63.267544 43.050460 -459.626129
v -88.995329 40.908090 -452.120104
v -88.995329 43.050460 -452.120104
v -88.995329 43.050460 -459.626129
v -88.995329 40.908090 -459.626129
v -63.267544 36.623341 -452.120104
v -63.267544 38.765714 -452.120104
v -63.267544 36.623341 -459.626129
v -63.267544 38.765714 -459.626129
v -88.995329 36.623341 -452.120104
v -88.995329 38.765714 -452.120104
v -88.995329 38.765714 -459.626129
v -88.995329 36.623341 -459.626129
v -63.267544 32.338596 -452.120104
v -63.267544 34.480965 -452.120104
v -63.267544 32.338596 -459.626129
v -63.267544 34.480965 -459.626129
v -88.995329 32.338596 -452.120104
v -88.995329 34.480965 -452.120104
v -88.995329 34.480965 -459.626129
v -88.995329 32.338596 -459.626129
v -63.267544 64.512788 -452.120104
v -63.267544 66.655160 -452.120104
v -63.267544 64.512788 -459.626129
v -63.267544 66.655160 -459.626129
v -99.726470 64.512780 -452.120104
v -99.726470 66.655160 -452.120104
v -99.726470 66.655160 -459.626129
v -99.726470 64.512780 -459.626129
v -97.584097 64.512780 -452.120104
v -97.584097 64.512780 -459.626129
v -99.726470 8.753196 -452.120104
v -99.726470 8.753196 -459.626129
v -97.584097 10.876267 -452.120104
v -97.584097 10.876267 -459.626129
v -99.726470 10.876267 -459.626129
v -99.726470 10.876267 -452.120104
v -63.267544 10.876267 -452.120104
v -63.267544 10.876267 -459.626129
v -63.267544 8.753196 -452.120104
v -63.267544 8.753196 -459.626129
v -63.267544 68.797533 -452.120104
v -63.267544 70.939906 -452.120104
v -63.267544 68.797533 -459.626129
v -63.267544 70.939906 -459.626129
v -95.441731 68.797533 -452.120104
v -95.441731 70.939906 -452.120104
v -95.441731 70.939906 -459.626129
v -95.441731 68.797533 -459.626129
v -93.299359 68.797533 -452.120104
v -93.299359 68.797533 -459.626129
v -95.441731 4.468442 -452.120104
v -95.441731 4.468442 -459.626129
v -93.299359 6.591521 -452.120104
v -93.299359 6.591521 -459.626129
v -95.441731 6.591521 -459.626129
v -95.441731 6.591521 -452.120104
v -63.267544 6.591521 -452.120104
v -63.267544 6.591521 -459.626129
v -63.267544 4.468442 -452.120104
v -63.267544 4.468442 -459.626129
v -63.267544 73.082278 -452.120104
v -63.267544 75.224651 -452.120104
v -63.267544 73.082278 -459.626129
v -63.267544 75.224651 -459.626129
v -91.156993 73.082278 -452.120104
v -91.156993 75.224651 -452.120104
v -91.156993 75.224651 -459.626129
v -91.156993 73.082278 -459.626129
v -88.995329 73.082278 -452.120104
v -88.995329 73.082278 -459.626129
v -91.156993 0.183703 -452.120104
v -91.156993 0.183703 -459.626129
v -88.995329 2.326080 -452.120104
v -88.995329 2.326080 -459.626129
v -91.156993 2.326080 -459.626129
v -91.156993 2.326080 -452.120104
v -63.267544 2.326080 -452.120104
v -63.267544 2.326080 -459.626129
v -63.267544 0.183703 -452.120104
v -63.267544 0.183703 -459.626129
vt 0.679647 0.361243
vt 0.679647 0.368353
vt 0.654739 0.368353
vt 0.654739 0.361243
vt 0.679647 0.460836
vt 0.654739 0.460836
vt 0.654739 0.453726
vt 0.679647 0.453726
vt 0.890002 0.078832
vt 0.890002 0.085941
vt 0.804628 0.085941
vt 0.804628 0.078832
vt 0.890002 0.048836
vt 0.890002 0.055945
vt 0.804628 0.055945
vt 0.804628 0.048836
vt 0.654739 0.275870
vt 0.679647 0.275870
vt 0.561314 0.347025
vt 0.561314 0.354134
vt 0.536406 0.354134
vt 0.536406 0.347025
vt 0.561314 0.446617
vt 0.536406 0.446617
vt 0.536406 0.439508
vt 0.561314 0.439508
vt 0.890002 0.033838
vt 0.890002 0.040947
vt 0.804628 0.040947
vt 0.804628 0.033838
vt 0.890002 0.063834
vt 0.890002 0.070943
vt 0.804628 0.070943
vt 0.804628 0.063834
vt 0.536406 0.261651
vt 0.561314 0.261651
vt 0.695425 0.104278
vt 0.695425 0.111387
vt 0.670517 0.111387
vt 0.670517 0.104278
vt 0.695425 0.203870
vt 0.670517 0.203870
vt 0.670517 0.196761
vt 0.695425 0.196761
vt 0.890002 0.153822
vt 0.890002 0.160932
vt 0.804628 0.160932
vt 0.804628 0.153822
vt 0.621780 0.196761
vt 0.621780 0.203870
vt 0.536406 0.203870
vt 0.536406 0.196761
vt 0.670517 0.018904
vt 0.695425 0.018904
vt 0.074906 0.551887
vt 0.074906 0.544778
vt 0.099814 0.544778
vt 0.099814 0.551887
vt 0.074906 0.416685
vt 0.099814 0.416685
vt 0.099814 0.423794
vt 0.074906 0.423794
vt 0.074906 0.302811
vt 0.099814 0.302811
vt 0.795960 0.203934
vt 0.909834 0.203934
vt 0.909834 0.211044
vt 0.788850 0.211044
vt 0.788850 0.203934
vt 0.099814 0.736917
vt 0.099814 0.857901
vt 0.074906 0.857901
vt 0.074906 0.736917
vt 0.773073 0.533615
vt 0.894056 0.533615
vt 0.894056 0.540724
vt 0.780182 0.540724
vt 0.773073 0.540724
vt 0.074906 0.124826
vt 0.099814 0.124826
vt 0.788850 0.025949
vt 0.795960 0.025949
vt 0.099814 0.729872
vt 0.074906 0.729872
vt 0.780182 0.718709
vt 0.773073 0.718709
vt 0.099814 0.010951
vt 0.074906 0.010951
vt 0.074906 0.003906
vt 0.099814 0.003906
vt 0.788850 0.018904
vt 0.909834 0.018904
vt 0.909834 0.025949
vt 0.773073 0.725754
vt 0.894056 0.718709
vt 0.894056 0.725754
vt 0.003906 0.537669
vt 0.003906 0.530560
vt 0.028814 0.530560
vt 0.028814 0.537669
vt 0.003906 0.416685
vt 0.028814 0.416685
vt 0.028814 0.423794
vt 0.003906 0.423794
vt 0.003906 0.317029
vt 0.028814 0.317029
vt 0.028814 0.751136
vt 0.028814 0.857901
vt 0.003906 0.857901
vt 0.003906 0.751136
vt 0.698128 0.775518
vt 0.804894 0.775518
vt 0.804894 0.782627
vt 0.705237 0.782627
vt 0.698128 0.782627
vt 0.823571 0.988985
vt 0.923227 0.988985
vt 0.923227 0.996094
vt 0.816462 0.996094
vt 0.816462 0.988985
vt 0.003906 0.110608
vt 0.028814 0.110608
vt 0.816462 0.782563
vt 0.823571 0.782563
vt 0.028814 0.744090
vt 0.003906 0.744090
vt 0.705237 0.989049
vt 0.698128 0.989049
vt 0.028814 0.010951
vt 0.003906 0.010951
vt 0.003906 0.003906
vt 0.028814 0.003906
vt 0.816462 0.775518
vt 0.923227 0.775518
vt 0.923227 0.782563
vt 0.698128 0.996094
vt 0.804894 0.989049
vt 0.804894 0.996094
vt 0.145906 0.523323
vt 0.145906 0.516213
vt 0.170814 0.516213
vt 0.170814 0.523323
vt 0.145906 0.416557
vt 0.170814 0.416557
vt 0.170814 0.423666
vt 0.145906 0.423666
vt 0.145906 0.331183
vt 0.170814 0.331183
vt 0.170814 0.765226
vt 0.170814 0.857773
vt 0.145906 0.857773
vt 0.145906 0.765226
vt 0.792795 0.261651
vt 0.885342 0.261651
vt 0.885342 0.268761
vt 0.799968 0.268761
vt 0.792795 0.268761
vt 0.764468 0.760520
vt 0.849842 0.760520
vt 0.849842 0.767629
vt 0.757295 0.767629
vt 0.757295 0.760520
vt 0.145906 0.096389
vt 0.170814 0.096389
vt 0.757295 0.525726
vt 0.764468 0.525726
vt 0.170814 0.758117
vt 0.145906 0.758117
vt 0.799968 0.503555
vt 0.792795 0.503555
vt 0.170814 0.011015
vt 0.145906 0.011015
vt 0.145906 0.003906
vt 0.170814 0.003906
vt 0.757295 0.518617
vt 0.849842 0.518617
vt 0.849842 0.525726
vt 0.792795 0.510664
vt 0.885342 0.503555
vt 0.885342 0.510664
vn -1.000000 0.000000 0.000000
vn -1.000000 0.000000 0.000000
vn -1.000000 0.000000 0.000000
vn -1.000000 0.000000 0.000000
vn 1.000000 0.000000 0.000000
vn 1.000000 0.000000 0.000000
vn 1.000000 0.000000 0.000000
vn 1.000000 0.000000 0.000000
vn 0.000000 0.000000 1.000000
vn 0.000000 0.000000 1.000000
vn 0.000000 0.000000 1.000000
vn 0.000000 0.000000 1.000000
vn 0.000000 1.000000 0.000000
vn 0.000000 1.000000 0.000000
vn 0.000000 1.000000 0.000000
vn 0.000000 1.000000 0.000000
vn 0.000000 0.000000 -1.000000
vn 0.000000 0.000000 -1.000000
vn 0.000000 0.000000 -1.000000
vn 0.000000 0.000000 -1.000000
vn 0.000000 -1.000000 0.000000
vn 0.000000 -1.000000 0.000000
vn 0.000000 -1.000000 0.000000
vn 0.000000 -1.000000 0.000000
vn -1.000000 0.000000 0.000000
vn -1.000000 0.000000 0.000000
vn -1.000000 0.000000 0.000000
vn -1.000000 0.000000 0.000000
vn 1.000000 0.000000 0.000000
vn 1.000000 0.000000 0.000000
vn 1.000000 0.000000 0.000000
vn 1.000000 0.000000 0.000000
vn 0.000000 0.000000 1.000000
vn 0.000000 0.000000 1.000000
vn 0.000000 0.000000 1.000000
vn 0.000000 0.000000 1.000000
vn 0.000000 1.000000 0.000000
vn 0.000000 1.000000 0.000000
vn 0.000000 1.000000 0.000000
vn 0.000000 1.000000 0.000000
vn 0.000000 0.000000 -1.000000
vn 0.000000 0.000000 -1.000000
vn 0.000000 0.000000 -1.000000
vn 0.000000 0.000000 -1.000000
vn 0.000000 -1.000000 0.000000
vn 0.000000 -1.000000 0.000000
vn 0.000000 -1.000000 0.000000
vn 0.000000 -1.000000 0.000000
vn -1.000000 0.000000 0.000000
vn -1.000000 0.000000 0.000000
vn -1.000000 0.000000 0.000000
vn -1.000000 0.000000 0.000000
vn 1.000000 0.000000 0.000000
vn 1.000000 0.000000 0.000000
vn 1.000000 0.000000 0.000000
vn 1.000000 0.000000 0.000000
vn 0.000000 0.000000 1.000000
vn 0.000000 0.000000 1.000000
vn 0.000000 0.000000 1.000000
vn 0.000000 0.000000 1.000000
vn 0.000000 1.000000 0.000000
vn 0.000000 1.000000 0.000000
vn 0.000000 1.000000 0.000000
vn 0.000000 1.000000 0.000000
vn 0.000000 0.000000 -1.000000
vn 0.000000 0.000000 -1.000000
vn 0.000000 0.000000 -1.000000
vn 0.000000 0.000000 -1.000000
vn 0.000000 -1.000000 0.000000
vn 0.000000 -1.000000 0.000000
vn 0.000000 -1.000000 0.000000
vn 0.000000 -1.000000 0.000000
vn -1.000000 0.000000 0.000000
vn -1.000000 0.000000 0.000000
vn -1.000000 0.000000 0.000000
vn -1.000000 0.000000 0.000000
vn 1.000000 0.000000 0.000000
vn 1.000000 0.000000 0.000000
vn 1.000000 0.000000 0.000000
vn 1.000000 0.000000 0.000000
vn 0.000000 -1.000000 0.000000
vn 0.000000 -1.000000 0.000000
vn 0.000000 -1.000000 0.000000
vn 0.000000 -1.000000 0.000000
vn 0.000000 0.000000 1.000000
vn 0.000000 0.000000 1.000000
vn 0.000000 0.000000 1.000000
vn 0.000000 0.000000 1.000000
vn 0.000000 0.000000 1.000000
vn 0.000000 -1.000000 0.000000
vn 0.000000 -1.000000 0.000000
vn 0.000000 -1.000000 0.000000
vn 0.000000 -1.000000 0.000000
vn 0.000000 0.000000 -1.000000
vn 0.000000 0.000000 -1.000000
vn 0.000000 0.000000 -1.000000
vn 0.000000 0.000000 -1.000000
vn 0.000000 0.000000 -1.000000
vn 0.000000 1.000000 0.000000
vn 0.000000 1.000000 0.000000
vn 0.000000 1.000000 0.000000
vn 0.000000 1.000000 0.000000
vn 1.000000 0.000000 0.000000
vn 1.000000 0.000000 0.000000
vn 1.000000 0.000000 0.000000
vn 1.000000 0.000000 0.000000
vn 0.000000 0.000000 1.000000
vn 0.000000 0.000000 1.000000
vn 0.000000 0.000000 1.000000
vn 0.000000 0.000000 1.000000
vn -1.000000 0.000000 0.000000
vn -1.000000 0.000000 0.000000
vn -1.000000 0.000000 0.000000
vn -1.000000 0.000000 0.000000
vn 0.000000 0.000000 -1.000000
vn 0.000000 0.000000 -1.000000
vn 0.000000 0.000000 -1.000000
vn 0.000000 0.000000 -1.000000
vn 1.000000 0.000000 0.000000
vn 1.000000 0.000000 0.000000
vn 1.000000 0.000000 0.000000
vn 1.000000 0.000000 0.000000
vn -1.000000 0.000000 0.000000
vn -1.000000 0.000000 0.000000
vn -1.000000 0.000000 0.000000
vn -1.000000 0.000000 0.000000
vn 0.000000 0.000000 1.000000
vn 0.000000 0.000000 1.000000
vn 0.000000 0.000000 1.000000
vn 0.000000 0.000000 1.000000
vn 0.000000 0.000000 1.000000
vn 0.000000 1.000000 0.000000
vn 0.000000 1.000000 0.000000
vn 0.000000 1.000000 0.000000
vn 0.000000 1.000000 0.000000
vn 0.000000 0.000000 -1.000000
vn 0.000000 0.000000 -1.000000
vn 0.000000 0.000000 -1.000000
vn 0.000000 0.000000 -1.000000
vn 0.000000 0.000000 -1.000000
vn -1.000000 0.000000 0.000000
vn -1.000000 0.000000 0.000000
vn -1.000000 0.000000 0.000000
vn -1.000000 0.000000 0.000000
vn 1.000000 0.000000 0.000000
vn 1.000000 0.000000 0.000000
vn 1.000000 0.000000 0.000000
vn 1.000000 0.000000 0.000000
vn 0.000000 -1.000000 0.000000
vn 0.000000 -1.000000 0.000000
vn 0.000000 -1.000000 0.000000
vn 0.000000 -1.000000 0.000000
vn 0.000000 -1.000000 0.000000
vn 0.000000 -1.000000 0.000000
vn 0.000000 -1.000000 0.000000
vn 0.000000 -1.000000 0.000000
vn 0.000000 0.000000 -1.000000
vn 0.000000 0.000000 -1.000000
vn 0.000000 0.000000 -1.000000
vn 0.000000 0.000000 -1.000000
vn 0.000000 0.000000 -1.000000
vn 0.000000 1.000000 0.000000
vn 0.000000 1.000000 0.000000
vn 0.000000 1.000000 0.000000
vn 0.000000 1.000000 0.000000
vn 0.000000 0.000000 1.000000
vn 0.000000 0.000000 1.000000
vn 0.000000 0.000000 1.000000
vn 0.000000 0.000000 1.000000
vn 0.000000 0.000000 1.000000
vn 1.000000 0.000000 0.000000
vn 1.000000 0.000000 0.000000
vn 1.000000 0.000000 0.000000
vn 1.000000 0.000000 0.000000
vn 0.000000 0.000000 1.000000
vn 0.000000 0.000000 1.000000
vn 0.000000 0.000000 1.000000
vn 0.000000 0.000000 1.000000
vn -1.000000 0.000000 0.000000
vn -1.000000 0.000000 0.000000
vn -1.000000 0.000000 0.000000
vn -1.000000 0.000000 0.000000
vn 0.000000 0.000000 -1.000000
vn 0.000000 0.000000 -1.000000
vn 0.000000 0.000000 -1.000000
vn 0.000000 0.000000 -1.000000
vn 1.000000 0.000000 0.000000
vn 1.000000 0.000000 0.000000
vn 1.000000 0.000000 0.000000
vn 1.000000 0.000000 0.000000
vn -1.000000 0.000000 0.000000
vn -1.000000 0.000000 0.000000
vn -1.000000 0.000000 0.000000
vn -1.000000 0.000000 0.000000
vn 0.000000 0.000000 1.000000
vn 0.000000 0.000000 1.000000
vn 0.000000 0.000000 1.000000
vn 0.000000 0.000000 1.000000
vn 0.000000 0.000000 1.000000
vn 0.000000 1.000000 0.000000
vn 0.000000 1.000000 0.000000
vn 0.000000 1.000000 0.000000
vn 0.000000 1.000000 0.000000
vn 0.000000 0.000000 -1.000000
vn 0.000000 0.000000 -1.000000
vn 0.000000 0.000000 -1.000000
vn 0.000000 0.000000 -1.000000
vn 0.000000 0.000000 -1.000000
vn -1.000000 0.000000 0.000000
vn -1.000000 0.000000 0.000000
vn -1.000000 0.000000 0.000000
vn -1.000000 0.000000 0.000000
vn 1.000000 0.000000 0.000000
vn 1.000000 0.000000 0.000000
vn 1.000000 0.000000 0.000000
vn 1.000000 0.000000 0.000000
vn 0.000000 -1.000000 0.000000
vn 0.000000 -1.000000 0.000000
vn 0.000000 -1.000000 0.000000
vn 0.000000 -1.000000 0.000000
vn 0.000000 -1.000000 0.000000
vn 0.000000 -1.000000 0.000000
vn 0.000000 -1.000000 0.000000
vn 0.000000 -1.000000 0.000000
vn 0.000000 0.000000 -1.000000
vn 0.000000 0.000000 -1.000000
vn 0.000000 0.000000 -1.000000
vn 0.000000 0.000000 -1.000000
vn 0.000000 0.000000 -1.000000
vn 0.000000 1.000000 0.000000
vn 0.000000 1.000000 0.000000
vn 0.000000 1.000000 0.000000
vn 0.000000 1.000000 0.000000
vn 0.000000 0.000000 1.000000
vn 0.000000 0.000000 1.000000
vn 0.000000 0.000000 1.000000
vn 0.000000 0.000000 1.000000
vn 0.000000 0.000000 1.000000
vn 1.000000 0.000000 0.000000
vn 1.000000 0.000000 0.000000
vn 1.000000 0.000000 0.000000
vn 1.000000 0.000000 0.000000
vn 0.000000 0.000000 1.000000
vn 0.000000 0.000000 1.000000
vn 0.000000 0.000000 1.000000
vn 0.000000 0.000000 1.000000
vn -1.000000 0.000000 0.000000
vn -1.000000 0.000000 0.000000
vn -1.000000 0.000000 0.000000
vn -1.000000 0.000000 0.000000
vn 0.000000 0.000000 -1.000000
vn 0.000000 0.000000 -1.000000
vn 0.000000 0.000000 -1.000000
vn 0.000000 0.000000 -1.000000
vn 1.000000 0.000000 0.000000
vn 1.000000 0.000000 0.000000
vn 1.000000 0.000000 0.000000
vn 1.000000 0.000000 0.000000
vn -1.000000 0.000000 0.000000
vn -1.000000 0.000000 0.000000
vn -1.000000 0.000000 0.000000
vn -1.000000 0.000000 0.000000
vn 0.000000 0.000000 1.000000
vn 0.000000 0.000000 1.000000
vn 0.000000 0.000000 1.000000
vn 0.000000 0.000000 1.000000
vn 0.000000 0.000000 1.000000
vn 0.000000 1.000000 0.000000
vn 0.000000 1.000000 0.000000
vn 0.000000 1.000000 0.000000
vn 0.000000 1.000000 0.000000
vn 0.000000 0.000000 -1.000000
vn 0.000000 0.000000 -1.000000
vn 0.000000 0.000000 -1.000000
vn 0.000000 0.000000 -1.000000
vn 0.000000 0.000000 -1.000000
s off
g E group4
usemtl initialShadingGroup
f 5/1/1 6/2/2 7/3/3 8/4/4
f 1/5/5 3/6/6 4/7/7 2/8/8
f 1/9/9 2/10/10 6/11/11 5/12/12
f 2/8/13 4/7/14 7/3/15 6/2/16
f 4/13/17 3/14/18 8/15/19 7/16/20
f 3/17/21 1/18/22 5/1/23 8/4/24
f 13/19/25 14/20/26 15/21/27 16/22/28
f 9/23/29 11/24/30 12/25/31 10/26/32
f 9/27/33 10/28/34 14/29/35 13/30/36
f 10/26/37 12/25/38 15/21/39 14/20/40
f 12/31/41 11/32/42 16/33/43 15/34/44
f 11/35/45 9/36/46 13/19/47 16/22/48
f 21/37/49 22/38/50 23/39/51 24/40/52
f 17/41/53 19/42/54 20/43/55 18/44/56
f 17/45/57 18/46/58 22/47/59 21/48/60
f 18/44/61 20/43/62 23/39/63 22/38/64
f 20/49/65 19/50/66 24/51/67 23/52/68
f 19/53/69 17/54/70 21/37/71 24/40/72
f 29/55/73 30/56/74 31/57/75 32/58/76
f 25/59/77 27/60/78 28/61/79 26/62/80
f 27/60/81 25/59/82 33/63/83 34/64/84
f 33/65/85 25/66/86 26/67/87 30/68/88 29/69/89
f 36/70/90 44/71/91 43/72/92 35/73/93
f 31/74/94 28/75/95 27/76/96 34/77/97 32/78/98
f 26/62/99 28/61/100 31/57/101 30/56/102
f 34/64/103 33/63/104 37/79/105 38/80/106
f 33/65/107 29/69/108 40/81/109 37/82/110
f 29/55/111 32/58/112 39/83/113 40/84/114
f 32/78/115 34/77/116 38/85/117 39/86/118
f 42/87/119 41/88/120 43/89/121 44/90/122
f 40/84/123 39/83/124 36/70/125 35/73/126
f 35/91/127 43/92/128 41/93/129 37/82/130 40/81/131
f 38/80/132 37/79/133 41/88/134 42/87/135
f 36/94/136 39/86/137 38/85/138 42/95/139 44/96/140
f 49/97/141 50/98/142 51/99/143 52/100/144
f 45/101/145 47/102/146 48/103/147 46/104/148
f 47/102/149 45/101/150 53/105/151 54/106/152
f 56/107/153 64/108/154 63/109/155 55/110/156
f 51/111/157 48/112/158 47/113/159 54/114/160 52/115/161
f 50/98/162 46/104/163 48/103/164 51/99/165
f 53/116/166 45/117/167 46/118/168 50/119/169 49/120/170
f 54/106/171 53/105/172 57/121/173 58/122/174
f 53/116/175 49/120/176 60/123/177 57/124/178
f 49/97/179 52/100/180 59/125/181 60/126/182
f 52/115/183 54/114/184 58/127/185 59/128/186
f 62/129/187 61/130/188 63/131/189 64/132/190
f 60/126/191 59/125/192 56/107/193 55/110/194
f 55/133/195 63/134/196 61/135/197 57/124/198 60/123/199
f 58/122/200 57/121/201 61/130/202 62/129/203
f 56/136/204 59/128/205 58/127/206 62/137/207 64/138/208
f 69/139/209 70/140/210 71/141/211 72/142/212
f 65/143/213 67/144/214 68/145/215 66/146/216
f 67/144/217 65/143/218 73/147/219 74/148/220
f 76/149/221 84/150/222 83/151/223 75/152/224
f 71/153/225 68/154/226 67/155/227 74/156/228 72/157/229
f 70/140/230 66/146/231 68/145/232 71/141/233
f 73/158/234 65/159/235 66/160/236 70/161/237 69/162/238
f 74/148/239 73/147/240 77/163/241 78/164/242
f 73/158/243 69/162/244 80/165/245 77/166/246
f 69/139/247 72/142/248 79/167/249 80/168/250
f 72/157/251 74/156/252 78/169/253 79/170/254
f 82/171/255 81/172/256 83/173/257 84/174/258
f 80/168/259 79/167/260 76/149/261 75/152/262
f 75/175/263 83/176/264 81/177/265 77/166/266 80/165/267
f 78/164/268 77/163/269 81/172/270 82/171/271
f 76/178/272 79/170/273 78/169/274 82/179/275 84/180/276
