# This file uses centimeters as units for non-parametric coordinates.

mtllib E1.mtl
g default
v 63.267544 40.908090 -452.112598
v 63.267544 43.050460 -452.112598
v 63.267544 40.908090 -459.618623
v 63.267544 43.050460 -459.618623
v 88.995329 40.908090 -452.112598
v 88.995329 43.050460 -452.112598
v 88.995329 43.050460 -459.618623
v 88.995329 40.908090 -459.618623
v 63.267544 36.623341 -452.112598
v 63.267544 38.765714 -452.112598
v 63.267544 36.623341 -459.618623
v 63.267544 38.765714 -459.618623
v 88.995329 36.623341 -452.112598
v 88.995329 38.765714 -452.112598
v 88.995329 38.765714 -459.618623
v 88.995329 36.623341 -459.618623
v 63.267544 32.338596 -452.112598
v 63.267544 34.480965 -452.112598
v 63.267544 32.338596 -459.618623
v 63.267544 34.480965 -459.618623
v 88.995329 32.338596 -452.112598
v 88.995329 34.480965 -452.112598
v 88.995329 34.480965 -459.618623
v 88.995329 32.338596 -459.618623
v 63.267544 64.512788 -452.112598
v 63.267544 66.655160 -452.112598
v 63.267544 64.512788 -459.618623
v 63.267544 66.655160 -459.618623
v 99.726470 64.512780 -452.112598
v 99.726470 66.655160 -452.112598
v 99.726470 66.655160 -459.618623
v 99.726470 64.512780 -459.618623
v 97.584097 64.512780 -452.112598
v 97.584097 64.512780 -459.618623
v 99.726470 8.753196 -452.112598
v 99.726470 8.753196 -459.618623
v 97.584097 10.876267 -452.112598
v 97.584097 10.876267 -459.618623
v 99.726470 10.876267 -459.618623
v 99.726470 10.876267 -452.112598
v 63.267544 10.876267 -452.112598
v 63.267544 10.876267 -459.618623
v 63.267544 8.753196 -452.112598
v 63.267544 8.753196 -459.618623
v 63.267544 68.797533 -452.112598
v 63.267544 70.939906 -452.112598
v 63.267544 68.797533 -459.618623
v 63.267544 70.939906 -459.618623
v 95.441731 68.797533 -452.112598
v 95.441731 70.939906 -452.112598
v 95.441731 70.939906 -459.618623
v 95.441731 68.797533 -459.618623
v 93.299359 68.797533 -452.112598
v 93.299359 68.797533 -459.618623
v 95.441731 4.468442 -452.112598
v 95.441731 4.468442 -459.618623
v 93.299359 6.591521 -452.112598
v 93.299359 6.591521 -459.618623
v 95.441731 6.591521 -459.618623
v 95.441731 6.591521 -452.112598
v 63.267544 6.591521 -452.112598
v 63.267544 6.591521 -459.618623
v 63.267544 4.468442 -452.112598
v 63.267544 4.468442 -459.618623
v 63.267544 73.082278 -452.112598
v 63.267544 75.224651 -452.112598
v 63.267544 73.082278 -459.618623
v 63.267544 75.224651 -459.618623
v 91.156993 73.082278 -452.112598
v 91.156993 75.224651 -452.112598
v 91.156993 75.224651 -459.618623
v 91.156993 73.082278 -459.618623
v 88.995329 73.082278 -452.112598
v 88.995329 73.082278 -459.618623
v 91.156993 0.183703 -452.112598
v 91.156993 0.183703 -459.618623
v 88.995329 2.326080 -452.112598
v 88.995329 2.326080 -459.618623
v 91.156993 2.326080 -459.618623
v 91.156993 2.326080 -452.112598
v 63.267544 2.326080 -452.112598
v 63.267544 2.326080 -459.618623
v 63.267544 0.183703 -452.112598
v 63.267544 0.183703 -459.618623
vt 0.596814 0.446617
vt 0.571906 0.446617
vt 0.571906 0.439508
vt 0.596814 0.439508
vt 0.596814 0.347025
vt 0.596814 0.354134
vt 0.571906 0.354134
vt 0.571906 0.347025
vt 0.804628 0.108828
vt 0.890002 0.108828
vt 0.890002 0.115938
vt 0.804628 0.115938
vt 0.804628 0.093830
vt 0.890002 0.093830
vt 0.890002 0.100939
vt 0.804628 0.100939
vt 0.571906 0.261651
vt 0.596814 0.261651
vt 0.561314 0.188872
vt 0.536406 0.188872
vt 0.536406 0.181763
vt 0.561314 0.181763
vt 0.561314 0.089280
vt 0.561314 0.096389
vt 0.536406 0.096389
vt 0.536406 0.089280
vt 0.804628 0.123826
vt 0.890002 0.123826
vt 0.890002 0.130936
vt 0.804628 0.130936
vt 0.804628 0.138824
vt 0.890002 0.138824
vt 0.890002 0.145934
vt 0.804628 0.145934
vt 0.536406 0.003906
vt 0.561314 0.003906
vt 0.596814 0.188872
vt 0.571906 0.188872
vt 0.571906 0.181763
vt 0.596814 0.181763
vt 0.596814 0.089280
vt 0.596814 0.096389
vt 0.571906 0.096389
vt 0.571906 0.089280
vt 0.536406 0.211759
vt 0.621780 0.211759
vt 0.621780 0.218868
vt 0.536406 0.218868
vt 0.804628 0.168821
vt 0.890002 0.168821
vt 0.890002 0.175930
vt 0.804628 0.175930
vt 0.571906 0.003906
vt 0.596814 0.003906
vt 0.135314 0.551887
vt 0.110406 0.551887
vt 0.110406 0.544778
vt 0.135314 0.544778
vt 0.135314 0.416685
vt 0.135314 0.423794
vt 0.110406 0.423794
vt 0.110406 0.416685
vt 0.110406 0.302811
vt 0.135314 0.302811
vt 0.922447 0.461679
vt 0.929556 0.461679
vt 0.929556 0.468789
vt 0.808573 0.468789
vt 0.808573 0.461679
vt 0.110406 0.736917
vt 0.135314 0.736917
vt 0.135314 0.857901
vt 0.110406 0.857901
vt 0.503556 0.776298
vt 0.503556 0.783407
vt 0.496447 0.783407
vt 0.382573 0.783407
vt 0.382573 0.776298
vt 0.110406 0.124826
vt 0.135314 0.124826
vt 0.922447 0.283694
vt 0.929556 0.283694
vt 0.135314 0.729872
vt 0.110406 0.729872
vt 0.503556 0.961392
vt 0.496447 0.961392
vt 0.110406 0.010951
vt 0.110406 0.003906
vt 0.135314 0.003906
vt 0.135314 0.010951
vt 0.929556 0.276649
vt 0.808573 0.283694
vt 0.808573 0.276649
vt 0.503556 0.968437
vt 0.382573 0.968437
vt 0.382573 0.961392
vt 0.064314 0.644434
vt 0.039406 0.644434
vt 0.039406 0.637325
vt 0.064314 0.637325
vt 0.064314 0.523451
vt 0.064314 0.530560
vt 0.039406 0.530560
vt 0.039406 0.523451
vt 0.039406 0.423795
vt 0.064314 0.423795
vt 0.039406 0.003906
vt 0.064314 0.003906
vt 0.064314 0.110672
vt 0.039406 0.110672
vt 0.686560 0.775518
vt 0.686560 0.782627
vt 0.679451 0.782627
vt 0.579795 0.782627
vt 0.579795 0.775518
vt 0.316562 0.923379
vt 0.323671 0.923379
vt 0.323671 0.930488
vt 0.216906 0.930488
vt 0.216906 0.923379
vt 0.039406 0.217373
vt 0.064314 0.217373
vt 0.316562 0.716957
vt 0.323671 0.716957
vt 0.064314 0.850856
vt 0.039406 0.850856
vt 0.686560 0.989049
vt 0.679451 0.989049
vt 0.039406 0.117717
vt 0.064314 0.117717
vt 0.064314 0.857901
vt 0.039406 0.857901
vt 0.323671 0.709912
vt 0.216906 0.716957
vt 0.216906 0.709912
vt 0.686560 0.996094
vt 0.579795 0.996094
vt 0.579795 0.989049
vt 0.206314 0.615870
vt 0.181406 0.615870
vt 0.181406 0.608760
vt 0.206314 0.608760
vt 0.206314 0.509104
vt 0.206314 0.516213
vt 0.181406 0.516213
vt 0.181406 0.509104
vt 0.181406 0.423730
vt 0.206314 0.423730
vt 0.181406 0.003906
vt 0.206314 0.003906
vt 0.206314 0.096453
vt 0.181406 0.096453
vt 0.747286 0.518617
vt 0.747286 0.525726
vt 0.740113 0.525726
vt 0.654739 0.525726
vt 0.654739 0.518617
vt 0.621780 0.488557
vt 0.628953 0.488557
vt 0.628953 0.495666
vt 0.536406 0.495666
vt 0.536406 0.488557
vt 0.181406 0.188936
vt 0.206314 0.188936
vt 0.621780 0.253763
vt 0.628953 0.253763
vt 0.206314 0.850664
vt 0.181406 0.850664
vt 0.747286 0.760520
vt 0.740113 0.760520
vt 0.181406 0.103562
vt 0.206314 0.103562
vt 0.206314 0.857773
vt 0.181406 0.857773
vt 0.628953 0.246653
vt 0.536406 0.253763
vt 0.536406 0.246653
vt 0.747286 0.767629
vt 0.654739 0.767629
vt 0.654739 0.760520
vn 1.000000 0.000000 0.000000
vn 1.000000 0.000000 0.000000
vn 1.000000 0.000000 0.000000
vn 1.000000 0.000000 0.000000
vn -1.000000 0.000000 0.000000
vn -1.000000 0.000000 0.000000
vn -1.000000 0.000000 0.000000
vn -1.000000 0.000000 0.000000
vn 0.000000 0.000000 1.000000
vn 0.000000 0.000000 1.000000
vn 0.000000 0.000000 1.000000
vn 0.000000 0.000000 1.000000
vn 0.000000 1.000000 0.000000
vn 0.000000 1.000000 0.000000
vn 0.000000 1.000000 0.000000
vn 0.000000 1.000000 0.000000
vn 0.000000 0.000000 -1.000000
vn 0.000000 0.000000 -1.000000
vn 0.000000 0.000000 -1.000000
vn 0.000000 0.000000 -1.000000
vn 0.000000 -1.000000 0.000000
vn 0.000000 -1.000000 0.000000
vn 0.000000 -1.000000 0.000000
vn 0.000000 -1.000000 0.000000
vn 1.000000 0.000000 0.000000
vn 1.000000 0.000000 0.000000
vn 1.000000 0.000000 0.000000
vn 1.000000 0.000000 0.000000
vn -1.000000 0.000000 0.000000
vn -1.000000 0.000000 0.000000
vn -1.000000 0.000000 0.000000
vn -1.000000 0.000000 0.000000
vn 0.000000 0.000000 1.000000
vn 0.000000 0.000000 1.000000
vn 0.000000 0.000000 1.000000
vn 0.000000 0.000000 1.000000
vn 0.000000 1.000000 0.000000
vn 0.000000 1.000000 0.000000
vn 0.000000 1.000000 0.000000
vn 0.000000 1.000000 0.000000
vn 0.000000 0.000000 -1.000000
vn 0.000000 0.000000 -1.000000
vn 0.000000 0.000000 -1.000000
vn 0.000000 0.000000 -1.000000
vn 0.000000 -1.000000 0.000000
vn 0.000000 -1.000000 0.000000
vn 0.000000 -1.000000 0.000000
vn 0.000000 -1.000000 0.000000
vn 1.000000 0.000000 0.000000
vn 1.000000 0.000000 0.000000
vn 1.000000 0.000000 0.000000
vn 1.000000 0.000000 0.000000
vn -1.000000 0.000000 0.000000
vn -1.000000 0.000000 0.000000
vn -1.000000 0.000000 0.000000
vn -1.000000 0.000000 0.000000
vn 0.000000 0.000000 1.000000
vn 0.000000 0.000000 1.000000
vn 0.000000 0.000000 1.000000
vn 0.000000 0.000000 1.000000
vn 0.000000 1.000000 0.000000
vn 0.000000 1.000000 0.000000
vn 0.000000 1.000000 0.000000
vn 0.000000 1.000000 0.000000
vn 0.000000 0.000000 -1.000000
vn 0.000000 0.000000 -1.000000
vn 0.000000 0.000000 -1.000000
vn 0.000000 0.000000 -1.000000
vn 0.000000 -1.000000 0.000000
vn 0.000000 -1.000000 0.000000
vn 0.000000 -1.000000 0.000000
vn 0.000000 -1.000000 0.000000
vn 1.000000 0.000000 0.000000
vn 1.000000 0.000000 0.000000
vn 1.000000 0.000000 0.000000
vn 1.000000 0.000000 0.000000
vn -1.000000 0.000000 0.000000
vn -1.000000 0.000000 0.000000
vn -1.000000 0.000000 0.000000
vn -1.000000 0.000000 0.000000
vn 0.000000 -1.000000 0.000000
vn 0.000000 -1.000000 0.000000
vn 0.000000 -1.000000 0.000000
vn 0.000000 -1.000000 0.000000
vn 0.000000 0.000000 1.000000
vn 0.000000 0.000000 1.000000
vn 0.000000 0.000000 1.000000
vn 0.000000 0.000000 1.000000
vn 0.000000 0.000000 1.000000
vn 0.000000 -1.000000 0.000000
vn 0.000000 -1.000000 0.000000
vn 0.000000 -1.000000 0.000000
vn 0.000000 -1.000000 0.000000
vn 0.000000 0.000000 -1.000000
vn 0.000000 0.000000 -1.000000
vn 0.000000 0.000000 -1.000000
vn 0.000000 0.000000 -1.000000
vn 0.000000 0.000000 -1.000000
vn 0.000000 1.000000 0.000000
vn 0.000000 1.000000 0.000000
vn 0.000000 1.000000 0.000000
vn 0.000000 1.000000 0.000000
vn -1.000000 0.000000 0.000000
vn -1.000000 0.000000 0.000000
vn -1.000000 0.000000 0.000000
vn -1.000000 0.000000 0.000000
vn 0.000000 0.000000 1.000000
vn 0.000000 0.000000 1.000000
vn 0.000000 0.000000 1.000000
vn 0.000000 0.000000 1.000000
vn 1.000000 0.000000 0.000000
vn 1.000000 0.000000 0.000000
vn 1.000000 0.000000 0.000000
vn 1.000000 0.000000 0.000000
vn 0.000000 0.000000 -1.000000
vn 0.000000 0.000000 -1.000000
vn 0.000000 0.000000 -1.000000
vn 0.000000 0.000000 -1.000000
vn -1.000000 0.000000 0.000000
vn -1.000000 0.000000 0.000000
vn -1.000000 0.000000 0.000000
vn -1.000000 0.000000 0.000000
vn 1.000000 0.000000 0.000000
vn 1.000000 0.000000 0.000000
vn 1.000000 0.000000 0.000000
vn 1.000000 0.000000 0.000000
vn 0.000000 0.000000 1.000000
vn 0.000000 0.000000 1.000000
vn 0.000000 0.000000 1.000000
vn 0.000000 0.000000 1.000000
vn 0.000000 0.000000 1.000000
vn 0.000000 1.000000 0.000000
vn 0.000000 1.000000 0.000000
vn 0.000000 1.000000 0.000000
vn 0.000000 1.000000 0.000000
vn 0.000000 0.000000 -1.000000
vn 0.000000 0.000000 -1.000000
vn 0.000000 0.000000 -1.000000
vn 0.000000 0.000000 -1.000000
vn 0.000000 0.000000 -1.000000
vn 1.000000 0.000000 0.000000
vn 1.000000 0.000000 0.000000
vn 1.000000 0.000000 0.000000
vn 1.000000 0.000000 0.000000
vn -1.000000 0.000000 0.000000
vn -1.000000 0.000000 0.000000
vn -1.000000 0.000000 0.000000
vn -1.000000 0.000000 0.000000
vn 0.000000 -1.000000 0.000000
vn 0.000000 -1.000000 0.000000
vn 0.000000 -1.000000 0.000000
vn 0.000000 -1.000000 0.000000
vn 0.000000 -1.000000 0.000000
vn 0.000000 -1.000000 0.000000
vn 0.000000 -1.000000 0.000000
vn 0.000000 -1.000000 0.000000
vn 0.000000 0.000000 -1.000000
vn 0.000000 0.000000 -1.000000
vn 0.000000 0.000000 -1.000000
vn 0.000000 0.000000 -1.000000
vn 0.000000 0.000000 -1.000000
vn 0.000000 1.000000 0.000000
vn 0.000000 1.000000 0.000000
vn 0.000000 1.000000 0.000000
vn 0.000000 1.000000 0.000000
vn 0.000000 0.000000 1.000000
vn 0.000000 0.000000 1.000000
vn 0.000000 0.000000 1.000000
vn 0.000000 0.000000 1.000000
vn 0.000000 0.000000 1.000000
vn -1.000000 0.000000 0.000000
vn -1.000000 0.000000 0.000000
vn -1.000000 0.000000 0.000000
vn -1.000000 0.000000 0.000000
vn 0.000000 0.000000 1.000000
vn 0.000000 0.000000 1.000000
vn 0.000000 0.000000 1.000000
vn 0.000000 0.000000 1.000000
vn 1.000000 0.000000 0.000000
vn 1.000000 0.000000 0.000000
vn 1.000000 0.000000 0.000000
vn 1.000000 0.000000 0.000000
vn 0.000000 0.000000 -1.000000
vn 0.000000 0.000000 -1.000000
vn 0.000000 0.000000 -1.000000
vn 0.000000 0.000000 -1.000000
vn -1.000000 0.000000 0.000000
vn -1.000000 0.000000 0.000000
vn -1.000000 0.000000 0.000000
vn -1.000000 0.000000 0.000000
vn 1.000000 0.000000 0.000000
vn 1.000000 0.000000 0.000000
vn 1.000000 0.000000 0.000000
vn 1.000000 0.000000 0.000000
vn 0.000000 0.000000 1.000000
vn 0.000000 0.000000 1.000000
vn 0.000000 0.000000 1.000000
vn 0.000000 0.000000 1.000000
vn 0.000000 0.000000 1.000000
vn 0.000000 1.000000 0.000000
vn 0.000000 1.000000 0.000000
vn 0.000000 1.000000 0.000000
vn 0.000000 1.000000 0.000000
vn 0.000000 0.000000 -1.000000
vn 0.000000 0.000000 -1.000000
vn 0.000000 0.000000 -1.000000
vn 0.000000 0.000000 -1.000000
vn 0.000000 0.000000 -1.000000
vn 1.000000 0.000000 0.000000
vn 1.000000 0.000000 0.000000
vn 1.000000 0.000000 0.000000
vn 1.000000 0.000000 0.000000
vn -1.000000 0.000000 0.000000
vn -1.000000 0.000000 0.000000
vn -1.000000 0.000000 0.000000
vn -1.000000 0.000000 0.000000
vn 0.000000 -1.000000 0.000000
vn 0.000000 -1.000000 0.000000
vn 0.000000 -1.000000 0.000000
vn 0.000000 -1.000000 0.000000
vn 0.000000 -1.000000 0.000000
vn 0.000000 -1.000000 0.000000
vn 0.000000 -1.000000 0.000000
vn 0.000000 -1.000000 0.000000
vn 0.000000 0.000000 -1.000000
vn 0.000000 0.000000 -1.000000
vn 0.000000 0.000000 -1.000000
vn 0.000000 0.000000 -1.000000
vn 0.000000 0.000000 -1.000000
vn 0.000000 1.000000 0.000000
vn 0.000000 1.000000 0.000000
vn 0.000000 1.000000 0.000000
vn 0.000000 1.000000 0.000000
vn 0.000000 0.000000 1.000000
vn 0.000000 0.000000 1.000000
vn 0.000000 0.000000 1.000000
vn 0.000000 0.000000 1.000000
vn 0.000000 0.000000 1.000000
vn -1.000000 0.000000 0.000000
vn -1.000000 0.000000 0.000000
vn -1.000000 0.000000 0.000000
vn -1.000000 0.000000 0.000000
vn 0.000000 0.000000 1.000000
vn 0.000000 0.000000 1.000000
vn 0.000000 0.000000 1.000000
vn 0.000000 0.000000 1.000000
vn 1.000000 0.000000 0.000000
vn 1.000000 0.000000 0.000000
vn 1.000000 0.000000 0.000000
vn 1.000000 0.000000 0.000000
vn 0.000000 0.000000 -1.000000
vn 0.000000 0.000000 -1.000000
vn 0.000000 0.000000 -1.000000
vn 0.000000 0.000000 -1.000000
vn -1.000000 0.000000 0.000000
vn -1.000000 0.000000 0.000000
vn -1.000000 0.000000 0.000000
vn -1.000000 0.000000 0.000000
vn 1.000000 0.000000 0.000000
vn 1.000000 0.000000 0.000000
vn 1.000000 0.000000 0.000000
vn 1.000000 0.000000 0.000000
vn 0.000000 0.000000 1.000000
vn 0.000000 0.000000 1.000000
vn 0.000000 0.000000 1.000000
vn 0.000000 0.000000 1.000000
vn 0.000000 0.000000 1.000000
vn 0.000000 1.000000 0.000000
vn 0.000000 1.000000 0.000000
vn 0.000000 1.000000 0.000000
vn 0.000000 1.000000 0.000000
vn 0.000000 0.000000 -1.000000
vn 0.000000 0.000000 -1.000000
vn 0.000000 0.000000 -1.000000
vn 0.000000 0.000000 -1.000000
vn 0.000000 0.000000 -1.000000
s off
g E1 group4
usemtl initialShadingGroup
f 5/1/1 8/2/2 7/3/3 6/4/4
f 1/5/5 2/6/6 4/7/7 3/8/8
f 1/9/9 5/10/10 6/11/11 2/12/12
f 2/6/13 6/4/14 7/3/15 4/7/16
f 4/13/17 7/14/18 8/15/19 3/16/20
f 3/8/21 8/17/22 5/18/23 1/5/24
f 13/19/25 16/20/26 15/21/27 14/22/28
f 9/23/29 10/24/30 12/25/31 11/26/32
f 9/27/33 13/28/34 14/29/35 10/30/36
f 10/24/37 14/22/38 15/21/39 12/25/40
f 12/31/41 15/32/42 16/33/43 11/34/44
f 11/26/45 16/35/46 13/36/47 9/23/48
f 21/37/49 24/38/50 23/39/51 22/40/52
f 17/41/53 18/42/54 20/43/55 19/44/56
f 17/45/57 21/46/58 22/47/59 18/48/60
f 18/42/61 22/40/62 23/39/63 20/43/64
f 20/49/65 23/50/66 24/51/67 19/52/68
f 19/44/69 24/53/70 21/54/71 17/41/72
f 29/55/73 32/56/74 31/57/75 30/58/76
f 25/59/77 26/60/78 28/61/79 27/62/80
f 27/62/81 34/63/82 33/64/83 25/59/84
f 33/65/85 29/66/86 30/67/87 26/68/88 25/69/89
f 36/70/90 35/71/91 43/72/92 44/73/93
f 31/74/94 32/75/95 34/76/96 27/77/97 28/78/98
f 26/60/99 30/58/100 31/57/101 28/61/102
f 34/63/103 38/79/104 37/80/105 33/64/106
f 33/65/107 37/81/108 40/82/109 29/66/110
f 29/55/111 40/83/112 39/84/113 32/56/114
f 32/75/115 39/85/116 38/86/117 34/76/118
f 42/87/119 44/88/120 43/89/121 41/90/122
f 40/83/123 35/71/124 36/70/125 39/84/126
f 35/91/127 40/82/128 37/81/129 41/92/130 43/93/131
f 38/79/132 42/87/133 41/90/134 37/80/135
f 36/94/136 44/95/137 42/96/138 38/86/139 39/85/140
f 49/97/141 52/98/142 51/99/143 50/100/144
f 45/101/145 46/102/146 48/103/147 47/104/148
f 47/104/149 54/105/150 53/106/151 45/101/152
f 56/107/153 55/108/154 63/109/155 64/110/156
f 51/111/157 52/112/158 54/113/159 47/114/160 48/115/161
f 50/100/162 51/99/163 48/103/164 46/102/165
f 53/116/166 49/117/167 50/118/168 46/119/169 45/120/170
f 54/105/171 58/121/172 57/122/173 53/106/174
f 53/116/175 57/123/176 60/124/177 49/117/178
f 49/97/179 60/125/180 59/126/181 52/98/182
f 52/112/183 59/127/184 58/128/185 54/113/186
f 62/129/187 64/110/188 63/109/189 61/130/190
f 60/125/191 55/131/192 56/132/193 59/126/194
f 55/133/195 60/124/196 57/123/197 61/134/198 63/135/199
f 58/121/200 62/129/201 61/130/202 57/122/203
f 56/136/204 64/137/205 62/138/206 58/128/207 59/127/208
f 69/139/209 72/140/210 71/141/211 70/142/212
f 65/143/213 66/144/214 68/145/215 67/146/216
f 67/146/217 74/147/218 73/148/219 65/143/220
f 76/149/221 75/150/222 83/151/223 84/152/224
f 71/153/225 72/154/226 74/155/227 67/156/228 68/157/229
f 70/142/230 71/141/231 68/145/232 66/144/233
f 73/158/234 69/159/235 70/160/236 66/161/237 65/162/238
f 74/147/239 78/163/240 77/164/241 73/148/242
f 73/158/243 77/165/244 80/166/245 69/159/246
f 69/139/247 80/167/248 79/168/249 72/140/250
f 72/154/251 79/169/252 78/170/253 74/155/254
f 82/171/255 84/152/256 83/151/257 81/172/258
f 80/167/259 75/173/260 76/174/261 79/168/262
f 75/175/263 80/166/264 77/165/265 81/176/266 83/177/267
f 78/163/268 82/171/269 81/172/270 77/164/271
f 76/178/272 84/179/273 82/180/274 78/170/275 79/169/276
