# This file uses centimeters as units for non-parametric coordinates.

mtllib FloorWall.mtl
g default
v -452.067413 -6.388292 378.126495
v 448.919312 -6.388292 378.126495
v -452.067413 -6.388400 -841.705994
v 448.919312 -6.388400 -841.705994
v -341.716888 319.965912 275.572510
v 362.323212 319.965912 275.572510
v -341.716888 319.965912 -635.317505
v 362.323212 319.965912 -635.317505
v -341.716888 -6.917633 275.572510
v -341.716888 -6.917633 -635.317505
v 362.323212 -6.917633 275.572510
v 362.323212 -6.917633 -635.317505
vt 0.000000 1.000000
vt 0.000000 0.558957
vt 0.598027 0.558957
vt 0.598027 1.000000
vt 0.575253 0.550167
vt 0.575261 0.000638
vt 1.000000 0.000000
vt 0.999992 0.549530
vt 0.404422 0.550623
vt 0.207124 0.550828
vt 0.206551 0.000205
vt 0.403849 0.000000
vt 0.197871 0.550623
vt 0.000573 0.550828
vt 0.000000 0.000205
vt 0.197298 0.000000
vt 0.604657 1.000000
vt 0.604657 0.816721
vt 1.000000 0.816721
vt 1.000000 1.000000
vn 0.000000 1.000000 0.000000
vn 0.000000 1.000000 0.000000
vn 0.000000 1.000000 0.000000
vn 0.000000 1.000000 0.000000
vn 0.000000 -1.000000 0.000000
vn 0.000000 -1.000000 0.000000
vn 0.000000 -1.000000 0.000000
vn 0.000000 -1.000000 0.000000
vn 1.000000 0.000000 0.000000
vn 1.000000 0.000000 0.000000
vn 1.000000 0.000000 0.000000
vn 1.000000 0.000000 0.000000
vn -1.000000 0.000000 0.000000
vn -1.000000 0.000000 0.000000
vn -1.000000 0.000000 0.000000
vn -1.000000 0.000000 0.000000
vn 0.000000 0.000000 1.000000
vn 0.000000 0.000000 1.000000
vn 0.000000 0.000000 1.000000
vn 0.000000 0.000000 1.000000
s off
g FloorWall
usemtl cam2:standardSurface1SG
f 1/1/1 2/2/2 4/3/3 3/4/4
f 5/5/5 7/6/6 8/7/7 6/8/8
f 5/9/9 9/10/10 10/11/11 7/12/12
f 8/13/13 12/14/14 11/15/15 6/16/16
f 7/17/17 10/18/18 12/19/19 8/20/20
