# This file uses centimeters as units for non-parametric coordinates.

mtllib I.mtl
g default
v -5.365584 75.224651 -452.090080
v -3.223215 75.224651 -452.090080
v -5.365584 75.224651 -459.596105
v -3.223215 75.224651 -459.596105
v -5.365584 0.164405 -452.090080
v -3.223215 0.164405 -452.090080
v -3.223215 0.164405 -459.596105
v -5.365584 0.164405 -459.596105
v -1.080838 75.224651 -452.097586
v 1.061532 75.224651 -452.097586
v -1.080838 75.224651 -459.603611
v 1.061532 75.224651 -459.603611
v -1.080838 0.164405 -452.097586
v 1.061532 0.164405 -452.097586
v 1.061532 0.164405 -459.603611
v -1.080838 0.164405 -459.603611
v 3.223215 75.224651 -452.105092
v 5.365584 75.224651 -452.105092
v 3.223215 75.224651 -459.611117
v 5.365584 75.224651 -459.611117
v 3.223215 0.164405 -452.105092
v 5.365584 0.164405 -452.105092
v 5.365584 0.164405 -459.611117
v 3.223215 0.164405 -459.611117
vt 0.454814 0.011015
vt 0.429906 0.011015
vt 0.429906 0.003906
vt 0.454814 0.003906
vt 0.454814 0.260092
vt 0.454814 0.267201
vt 0.429906 0.267201
vt 0.429906 0.260092
vt 0.950573 0.252983
vt 0.950573 0.003906
vt 0.957682 0.003906
vt 0.957682 0.252983
vt 0.454814 0.516277
vt 0.429906 0.516277
vt 0.973459 0.003906
vt 0.973459 0.252983
vt 0.966350 0.252983
vt 0.966350 0.003906
vt 0.490314 0.011015
vt 0.465406 0.011015
vt 0.465406 0.003906
vt 0.490314 0.003906
vt 0.490314 0.260092
vt 0.490314 0.267201
vt 0.465406 0.267201
vt 0.465406 0.260092
vt 0.934795 0.252983
vt 0.934795 0.003906
vt 0.941904 0.003906
vt 0.941904 0.252983
vt 0.490314 0.516277
vt 0.465406 0.516277
vt 0.926126 0.003906
vt 0.926126 0.252983
vt 0.919017 0.252983
vt 0.919017 0.003906
vt 0.525814 0.011015
vt 0.500906 0.011015
vt 0.500906 0.003906
vt 0.525814 0.003906
vt 0.525814 0.260092
vt 0.525814 0.267201
vt 0.500906 0.267201
vt 0.500906 0.260092
vt 0.982128 0.252983
vt 0.982128 0.003906
vt 0.989237 0.003906
vt 0.989237 0.252983
vt 0.525814 0.516277
vt 0.500906 0.516277
vt 0.945848 0.260872
vt 0.945848 0.509948
vt 0.938739 0.509948
vt 0.938739 0.260872
vn 0.000000 -1.000000 0.000000
vn 0.000000 -1.000000 0.000000
vn 0.000000 -1.000000 0.000000
vn 0.000000 -1.000000 0.000000
vn 0.000000 1.000000 0.000000
vn 0.000000 1.000000 0.000000
vn 0.000000 1.000000 0.000000
vn 0.000000 1.000000 0.000000
vn 0.000000 0.000000 1.000000
vn 0.000000 0.000000 1.000000
vn 0.000000 0.000000 1.000000
vn 0.000000 0.000000 1.000000
vn 1.000000 0.000000 0.000000
vn 1.000000 0.000000 0.000000
vn 1.000000 0.000000 0.000000
vn 1.000000 0.000000 0.000000
vn 0.000000 0.000000 -1.000000
vn 0.000000 0.000000 -1.000000
vn 0.000000 0.000000 -1.000000
vn 0.000000 0.000000 -1.000000
vn -1.000000 0.000000 0.000000
vn -1.000000 0.000000 0.000000
vn -1.000000 0.000000 0.000000
vn -1.000000 0.000000 0.000000
vn 0.000000 -1.000000 0.000000
vn 0.000000 -1.000000 0.000000
vn 0.000000 -1.000000 0.000000
vn 0.000000 -1.000000 0.000000
vn 0.000000 1.000000 0.000000
vn 0.000000 1.000000 0.000000
vn 0.000000 1.000000 0.000000
vn 0.000000 1.000000 0.000000
vn 0.000000 0.000000 1.000000
vn 0.000000 0.000000 1.000000
vn 0.000000 0.000000 1.000000
vn 0.000000 0.000000 1.000000
vn 1.000000 0.000000 0.000000
vn 1.000000 0.000000 0.000000
vn 1.000000 0.000000 0.000000
vn 1.000000 0.000000 0.000000
vn 0.000000 0.000000 -1.000000
vn 0.000000 0.000000 -1.000000
vn 0.000000 0.000000 -1.000000
vn 0.000000 0.000000 -1.000000
vn -1.000000 0.000000 0.000000
vn -1.000000 0.000000 0.000000
vn -1.000000 0.000000 0.000000
vn -1.000000 0.000000 0.000000
vn 0.000000 -1.000000 0.000000
vn 0.000000 -1.000000 0.000000
vn 0.000000 -1.000000 0.000000
vn 0.000000 -1.000000 0.000000
vn 0.000000 1.000000 0.000000
vn 0.000000 1.000000 0.000000
vn 0.000000 1.000000 0.000000
vn 0.000000 1.000000 0.000000
vn 0.000000 0.000000 1.000000
vn 0.000000 0.000000 1.000000
vn 0.000000 0.000000 1.000000
vn 0.000000 0.000000 1.000000
vn 1.000000 0.000000 0.000000
vn 1.000000 0.000000 0.000000
vn 1.000000 0.000000 0.000000
vn 1.000000 0.000000 0.000000
vn 0.000000 0.000000 -1.000000
vn 0.000000 0.000000 -1.000000
vn 0.000000 0.000000 -1.000000
vn 0.000000 0.000000 -1.000000
vn -1.000000 0.000000 0.000000
vn -1.000000 0.000000 0.000000
vn -1.000000 0.000000 0.000000
vn -1.000000 0.000000 0.000000
s off
g I group4
usemtl initialShadingGroup
f 5/1/1 8/2/2 7/3/3 6/4/4
f 1/5/5 2/6/6 4/7/7 3/8/8
f 1/9/9 5/10/10 6/11/11 2/12/12
f 2/6/13 6/13/14 7/14/15 4/7/16
f 4/15/17 7/16/18 8/17/19 3/18/20
f 3/8/21 8/2/22 5/1/23 1/5/24
f 13/19/25 16/20/26 15/21/27 14/22/28
f 9/23/29 10/24/30 12/25/31 11/26/32
f 9/27/33 13/28/34 14/29/35 10/30/36
f 10/24/37 14/31/38 15/32/39 12/25/40
f 12/33/41 15/34/42 16/35/43 11/36/44
f 11/26/45 16/20/46 13/19/47 9/23/48
f 21/37/49 24/38/50 23/39/51 22/40/52
f 17/41/53 18/42/54 20/43/55 19/44/56
f 17/45/57 21/46/58 22/47/59 18/48/60
f 18/42/61 22/49/62 23/50/63 20/43/64
f 20/51/65 23/52/66 24/53/67 19/54/68
f 19/44/69 24/38/70 21/37/71 17/41/72
