# This file uses centimeters as units for non-parametric coordinates.

mtllib L.mtl
g default
v -43.966891 75.224651 -452.082574
v -41.824521 75.224651 -452.082574
v -43.966891 75.224651 -459.588599
v -41.824521 75.224651 -459.588599
v -43.966891 0.164405 -452.082574
v -41.824521 0.164405 -452.082574
v -41.824521 0.164405 -459.588599
v -43.966891 0.164405 -459.588599
v -43.966891 2.306774 -459.588599
v -41.824521 2.306774 -459.588599
v -41.824521 2.306774 -452.082574
v -43.966891 2.306774 -452.082574
v -16.096745 2.306774 -459.588599
v -16.096745 2.306774 -452.082574
v -16.096745 0.164405 -459.588599
v -16.096745 0.164405 -452.082574
v -48.251640 75.224651 -452.082574
v -46.109263 75.224651 -452.082574
v -48.251640 75.224651 -459.588599
v -46.109263 75.224651 -459.588599
v -48.251640 4.449151 -452.082574
v -46.109263 4.449151 -452.082574
v -46.109263 4.449151 -459.588599
v -48.251640 4.449151 -459.588599
v -48.251640 6.591521 -459.588599
v -46.109263 6.591521 -459.588599
v -46.109263 6.591521 -452.082574
v -48.251640 6.591521 -452.082574
v -16.096745 6.591521 -459.588599
v -16.096745 6.591521 -452.082574
v -16.096745 4.449151 -459.588599
v -16.096745 4.449151 -452.082574
v -52.536378 75.224651 -452.082574
v -50.394009 75.224651 -452.082574
v -52.536378 75.224651 -459.588599
v -50.394009 75.224651 -459.588599
v -52.536378 8.733898 -452.082574
v -52.536378 8.733898 -459.588599
v -50.394009 10.876267 -452.082574
v -52.536378 10.876267 -452.082574
v -52.536378 10.876267 -459.588599
v -50.394009 10.876267 -459.588599
v -16.096745 10.876267 -459.588599
v -16.096745 10.876267 -452.082574
v -16.096745 8.733898 -459.588599
v -16.096745 8.733898 -452.082574
vt 0.252406 0.679916
vt 0.277314 0.679916
vt 0.277314 0.687025
vt 0.252406 0.687025
vt 0.252406 0.430840
vt 0.252406 0.423730
vt 0.277314 0.423730
vt 0.277314 0.430840
vt 0.757295 0.495730
vt 0.757295 0.253762
vt 0.764404 0.253762
vt 0.764404 0.495730
vt 0.252406 0.181763
vt 0.277314 0.181763
vt 0.661848 0.018904
vt 0.661848 0.260872
vt 0.654739 0.260872
vt 0.654739 0.018904
vt 0.277314 0.672807
vt 0.252406 0.672807
vt 0.661848 0.267981
vt 0.654739 0.267981
vt 0.252406 0.096389
vt 0.252406 0.089280
vt 0.277314 0.089280
vt 0.277314 0.096389
vt 0.757295 0.246653
vt 0.764404 0.246653
vt 0.747222 0.260872
vt 0.747222 0.267981
vt 0.277314 0.003906
vt 0.252406 0.003906
vt 0.849778 0.246653
vt 0.849778 0.253762
vt 0.287906 0.679916
vt 0.312814 0.679916
vt 0.312814 0.687025
vt 0.287906 0.687025
vt 0.287906 0.445058
vt 0.287906 0.437949
vt 0.312814 0.437949
vt 0.312814 0.445058
vt 0.536406 0.738413
vt 0.536406 0.510664
vt 0.543515 0.510664
vt 0.543515 0.738413
vt 0.287906 0.210200
vt 0.312814 0.210200
vt 0.646071 0.246653
vt 0.646071 0.474402
vt 0.638962 0.474402
vt 0.638962 0.246653
vt 0.312814 0.672807
vt 0.287906 0.672807
vt 0.646071 0.481511
vt 0.638962 0.481511
vt 0.287906 0.110607
vt 0.287906 0.103498
vt 0.312814 0.103498
vt 0.312814 0.110607
vt 0.745663 0.474402
vt 0.745663 0.481511
vt 0.312814 0.003906
vt 0.287906 0.003906
vt 0.543515 0.503555
vt 0.643107 0.503555
vt 0.643107 0.510664
vt 0.536406 0.503555
vt 0.358906 0.345466
vt 0.358906 0.338356
vt 0.383814 0.338356
vt 0.383814 0.345466
vt 0.773073 0.224546
vt 0.773073 0.011015
vt 0.780182 0.011015
vt 0.780182 0.224546
vt 0.358906 0.124826
vt 0.383814 0.124826
vt 0.437015 0.532771
vt 0.437015 0.746302
vt 0.429906 0.746302
vt 0.429906 0.532771
vt 0.383814 0.558996
vt 0.358906 0.558996
vt 0.383814 0.566105
vt 0.358906 0.566105
vt 0.429906 0.753411
vt 0.550826 0.746302
vt 0.550826 0.753411
vt 0.358906 0.011015
vt 0.358906 0.003906
vt 0.383814 0.003906
vt 0.383814 0.011015
vt 0.383814 0.687025
vt 0.358906 0.687025
vt 0.773073 0.003906
vt 0.893992 0.003906
vt 0.893992 0.011015
vn 0.000000 -1.000000 0.000000
vn 0.000000 -1.000000 0.000000
vn 0.000000 -1.000000 0.000000
vn 0.000000 -1.000000 0.000000
vn 0.000000 1.000000 0.000000
vn 0.000000 1.000000 0.000000
vn 0.000000 1.000000 0.000000
vn 0.000000 1.000000 0.000000
vn 0.000000 0.000000 1.000000
vn 0.000000 0.000000 1.000000
vn 0.000000 0.000000 1.000000
vn 0.000000 0.000000 1.000000
vn 1.000000 0.000000 0.000000
vn 1.000000 0.000000 0.000000
vn 1.000000 0.000000 0.000000
vn 1.000000 0.000000 0.000000
vn 0.000000 0.000000 -1.000000
vn 0.000000 0.000000 -1.000000
vn 0.000000 0.000000 -1.000000
vn 0.000000 0.000000 -1.000000
vn -1.000000 0.000000 0.000000
vn -1.000000 0.000000 0.000000
vn -1.000000 0.000000 0.000000
vn -1.000000 0.000000 0.000000
vn 0.000000 0.000000 -1.000000
vn 0.000000 0.000000 -1.000000
vn 0.000000 0.000000 -1.000000
vn 0.000000 0.000000 -1.000000
vn 1.000000 0.000000 0.000000
vn 1.000000 0.000000 0.000000
vn 1.000000 0.000000 0.000000
vn 1.000000 0.000000 0.000000
vn 0.000000 0.000000 1.000000
vn 0.000000 0.000000 1.000000
vn 0.000000 0.000000 1.000000
vn 0.000000 0.000000 1.000000
vn -1.000000 0.000000 0.000000
vn -1.000000 0.000000 0.000000
vn -1.000000 0.000000 0.000000
vn -1.000000 0.000000 0.000000
vn 0.000000 1.000000 0.000000
vn 0.000000 1.000000 0.000000
vn 0.000000 1.000000 0.000000
vn 0.000000 1.000000 0.000000
vn 0.000000 0.000000 -1.000000
vn 0.000000 0.000000 -1.000000
vn 0.000000 0.000000 -1.000000
vn 0.000000 0.000000 -1.000000
vn 0.000000 -1.000000 0.000000
vn 0.000000 -1.000000 0.000000
vn 0.000000 -1.000000 0.000000
vn 0.000000 -1.000000 0.000000
vn 0.000000 0.000000 1.000000
vn 0.000000 0.000000 1.000000
vn 0.000000 0.000000 1.000000
vn 0.000000 0.000000 1.000000
vn 0.000000 -1.000000 0.000000
vn 0.000000 -1.000000 0.000000
vn 0.000000 -1.000000 0.000000
vn 0.000000 -1.000000 0.000000
vn 0.000000 1.000000 0.000000
vn 0.000000 1.000000 0.000000
vn 0.000000 1.000000 0.000000
vn 0.000000 1.000000 0.000000
vn 0.000000 0.000000 1.000000
vn 0.000000 0.000000 1.000000
vn 0.000000 0.000000 1.000000
vn 0.000000 0.000000 1.000000
vn 1.000000 0.000000 0.000000
vn 1.000000 0.000000 0.000000
vn 1.000000 0.000000 0.000000
vn 1.000000 0.000000 0.000000
vn 0.000000 0.000000 -1.000000
vn 0.000000 0.000000 -1.000000
vn 0.000000 0.000000 -1.000000
vn 0.000000 0.000000 -1.000000
vn -1.000000 0.000000 0.000000
vn -1.000000 0.000000 0.000000
vn -1.000000 0.000000 0.000000
vn -1.000000 0.000000 0.000000
vn 0.000000 0.000000 -1.000000
vn 0.000000 0.000000 -1.000000
vn 0.000000 0.000000 -1.000000
vn 0.000000 0.000000 -1.000000
vn 1.000000 0.000000 0.000000
vn 1.000000 0.000000 0.000000
vn 1.000000 0.000000 0.000000
vn 1.000000 0.000000 0.000000
vn -1.000000 0.000000 0.000000
vn -1.000000 0.000000 0.000000
vn -1.000000 0.000000 0.000000
vn -1.000000 0.000000 0.000000
vn 0.000000 1.000000 0.000000
vn 0.000000 1.000000 0.000000
vn 0.000000 1.000000 0.000000
vn 0.000000 1.000000 0.000000
vn 0.000000 0.000000 -1.000000
vn 0.000000 0.000000 -1.000000
vn 0.000000 0.000000 -1.000000
vn 0.000000 0.000000 -1.000000
vn 0.000000 -1.000000 0.000000
vn 0.000000 -1.000000 0.000000
vn 0.000000 -1.000000 0.000000
vn 0.000000 -1.000000 0.000000
vn 0.000000 0.000000 1.000000
vn 0.000000 0.000000 1.000000
vn 0.000000 0.000000 1.000000
vn 0.000000 0.000000 1.000000
vn 0.000000 0.000000 1.000000
vn 0.000000 0.000000 1.000000
vn 0.000000 1.000000 0.000000
vn 0.000000 1.000000 0.000000
vn 0.000000 1.000000 0.000000
vn 0.000000 1.000000 0.000000
vn 0.000000 0.000000 1.000000
vn 0.000000 0.000000 1.000000
vn 0.000000 0.000000 1.000000
vn 0.000000 0.000000 1.000000
vn 1.000000 0.000000 0.000000
vn 1.000000 0.000000 0.000000
vn 1.000000 0.000000 0.000000
vn 1.000000 0.000000 0.000000
vn 0.000000 0.000000 -1.000000
vn 0.000000 0.000000 -1.000000
vn 0.000000 0.000000 -1.000000
vn 0.000000 0.000000 -1.000000
vn -1.000000 0.000000 0.000000
vn -1.000000 0.000000 0.000000
vn -1.000000 0.000000 0.000000
vn -1.000000 0.000000 0.000000
vn -1.000000 0.000000 0.000000
vn -1.000000 0.000000 0.000000
vn -1.000000 0.000000 0.000000
vn -1.000000 0.000000 0.000000
vn 0.000000 0.000000 -1.000000
vn 0.000000 0.000000 -1.000000
vn 0.000000 0.000000 -1.000000
vn 0.000000 0.000000 -1.000000
vn 0.000000 0.000000 -1.000000
vn 1.000000 0.000000 0.000000
vn 1.000000 0.000000 0.000000
vn 1.000000 0.000000 0.000000
vn 1.000000 0.000000 0.000000
vn 0.000000 1.000000 0.000000
vn 0.000000 1.000000 0.000000
vn 0.000000 1.000000 0.000000
vn 0.000000 1.000000 0.000000
vn 0.000000 -1.000000 0.000000
vn 0.000000 -1.000000 0.000000
vn 0.000000 -1.000000 0.000000
vn 0.000000 -1.000000 0.000000
vn 0.000000 0.000000 1.000000
vn 0.000000 0.000000 1.000000
vn 0.000000 0.000000 1.000000
vn 0.000000 0.000000 1.000000
vn 0.000000 0.000000 1.000000
s off
g L group4
usemtl initialShadingGroup
f 5/1/1 8/2/2 7/3/3 6/4/4
f 1/5/5 2/6/6 4/7/7 3/8/8
f 1/9/9 12/10/10 11/11/11 2/12/12
f 2/6/13 11/13/14 10/14/15 4/7/16
f 4/15/17 10/16/18 9/17/19 3/18/20
f 3/8/21 9/19/22 12/20/23 1/5/24
f 10/16/25 7/21/26 8/22/27 9/17/28
f 14/23/29 16/24/30 15/25/31 13/26/32
f 12/10/33 5/27/34 6/28/35 11/11/36
f 9/19/37 8/2/38 5/1/39 12/20/40
f 11/13/41 14/23/42 13/26/43 10/14/44
f 10/16/45 13/29/46 15/30/47 7/21/48
f 7/31/49 15/25/50 16/24/51 6/32/52
f 6/28/53 16/33/54 14/34/55 11/11/56
f 21/35/57 24/36/58 23/37/59 22/38/60
f 17/39/61 18/40/62 20/41/63 19/42/64
f 17/43/65 28/44/66 27/45/67 18/46/68
f 18/40/69 27/47/70 26/48/71 20/41/72
f 20/49/73 26/50/74 25/51/75 19/52/76
f 19/42/77 25/53/78 28/54/79 17/39/80
f 26/50/81 23/55/82 24/56/83 25/51/84
f 30/57/85 32/58/86 31/59/87 29/60/88
f 25/53/89 24/36/90 21/35/91 28/54/92
f 27/47/93 30/57/94 29/60/95 26/48/96
f 26/50/97 29/61/98 31/62/99 23/55/100
f 23/63/101 31/59/102 32/58/103 22/64/104
f 22/65/105 32/66/106 30/67/107 27/45/108 28/44/109 21/68/110
f 33/69/111 34/70/112 36/71/113 35/72/114
f 33/73/115 40/74/116 39/75/117 34/76/118
f 34/70/119 39/77/120 42/78/121 36/71/122
f 36/79/123 42/80/124 41/81/125 35/82/126
f 35/72/127 41/83/128 40/84/129 33/69/130
f 41/83/131 38/85/132 37/86/133 40/84/134
f 38/87/135 41/81/136 42/80/137 43/88/138 45/89/139
f 44/90/140 46/91/141 45/92/142 43/93/143
f 39/77/144 44/90/145 43/93/146 42/78/147
f 38/85/148 45/94/149 46/95/150 37/86/151
f 37/96/152 46/97/153 44/98/154 39/75/155 40/74/156
