# This file uses centimeters as units for non-parametric coordinates.

mtllib T.mtl
g default
v 41.805216 0.164405 -452.075068
v 43.947588 0.164405 -452.075068
v 41.805216 0.164405 -459.581093
v 43.947588 0.164405 -459.581093
v 43.947588 75.224651 -452.075068
v 43.947588 75.224651 -459.581093
v 41.805216 73.082278 -452.075068
v 41.805216 73.082278 -459.581093
v 43.947588 73.082278 -459.581093
v 43.947588 73.082278 -452.075068
v 16.077439 73.082278 -452.075068
v 16.077439 73.082278 -459.581093
v 16.077439 75.224651 -452.075068
v 16.077439 75.224651 -459.581093
v 16.077439 64.512788 -452.075068
v 16.077439 66.655160 -452.075068
v 16.077439 64.512788 -459.581093
v 16.077439 66.655160 -459.581093
v 52.517072 64.512788 -452.075068
v 52.517072 66.655160 -452.075068
v 52.517072 66.655160 -459.581093
v 52.517072 64.512788 -459.581093
v 50.374710 64.512788 -452.075068
v 50.374710 64.512788 -459.581093
v 50.374710 0.164405 -452.075068
v 50.374710 0.164405 -459.581093
v 52.517072 0.164405 -452.075068
v 52.517072 0.164405 -459.581093
v 16.077439 68.797533 -452.075068
v 16.077439 70.939906 -452.075068
v 16.077439 68.797533 -459.581093
v 16.077439 70.939906 -459.581093
v 48.251647 68.797533 -452.075068
v 48.251647 70.939906 -452.075068
v 48.251647 70.939906 -459.581093
v 48.251647 68.797533 -459.581093
v 46.109263 68.797533 -452.075068
v 46.109263 68.797533 -459.581093
v 46.109263 0.164397 -452.075068
v 46.109263 0.164397 -459.581093
v 48.251647 0.164397 -452.075068
v 48.251647 0.164397 -459.581093
vt 0.348314 0.011015
vt 0.323406 0.011015
vt 0.323406 0.003906
vt 0.348314 0.003906
vt 0.775613 0.261651
vt 0.782722 0.261651
vt 0.782722 0.503619
vt 0.775613 0.503619
vt 0.348314 0.687025
vt 0.323406 0.687025
vt 0.323406 0.445058
vt 0.348314 0.445058
vt 0.644667 0.767629
vt 0.637558 0.767629
vt 0.637558 0.525662
vt 0.644667 0.525662
vt 0.348314 0.252983
vt 0.323406 0.252983
vt 0.323406 0.338357
vt 0.348314 0.338357
vt 0.348314 0.345466
vt 0.323406 0.345466
vt 0.644667 0.518553
vt 0.552184 0.525662
vt 0.552184 0.518553
vt 0.323406 0.437949
vt 0.348314 0.437949
vt 0.782722 0.510728
vt 0.690239 0.510728
vt 0.690239 0.503619
vt 0.394406 0.224546
vt 0.419314 0.224546
vt 0.419314 0.231655
vt 0.394406 0.231655
vt 0.394406 0.359684
vt 0.394406 0.352575
vt 0.419314 0.352575
vt 0.419314 0.359684
vt 0.419314 0.473494
vt 0.394406 0.473494
vt 0.419314 0.003906
vt 0.419314 0.011015
vt 0.394406 0.011015
vt 0.394406 0.003906
vt 0.373326 0.694914
vt 0.373326 0.702023
vt 0.366217 0.702023
vt 0.252406 0.702023
vt 0.252406 0.694914
vt 0.563439 0.761300
vt 0.570548 0.761300
vt 0.570548 0.768409
vt 0.449628 0.768409
vt 0.449628 0.761300
vt 0.419314 0.687025
vt 0.394406 0.687025
vt 0.563439 0.547769
vt 0.570548 0.547769
vt 0.373326 0.915554
vt 0.366217 0.915554
vt 0.216906 0.238764
vt 0.241814 0.238764
vt 0.241814 0.245874
vt 0.216906 0.245874
vt 0.216906 0.359748
vt 0.216906 0.352639
vt 0.241814 0.352639
vt 0.241814 0.359748
vt 0.241814 0.459404
vt 0.216906 0.459404
vt 0.241814 0.003906
vt 0.241814 0.011015
vt 0.216906 0.011015
vt 0.216906 0.003906
vt 0.761505 0.003906
vt 0.761505 0.011015
vt 0.754396 0.011015
vt 0.654739 0.011015
vt 0.654739 0.003906
vt 0.636062 0.231655
vt 0.643171 0.231655
vt 0.643171 0.238764
vt 0.536406 0.238764
vt 0.536406 0.231655
vt 0.241814 0.687153
vt 0.216906 0.687153
vt 0.636062 0.003906
vt 0.643171 0.003906
vt 0.761505 0.238764
vt 0.754396 0.238764
vn 0.000000 -1.000000 0.000000
vn 0.000000 -1.000000 0.000000
vn 0.000000 -1.000000 0.000000
vn 0.000000 -1.000000 0.000000
vn 0.000000 0.000000 1.000000
vn 0.000000 0.000000 1.000000
vn 0.000000 0.000000 1.000000
vn 0.000000 0.000000 1.000000
vn 1.000000 0.000000 0.000000
vn 1.000000 0.000000 0.000000
vn 1.000000 0.000000 0.000000
vn 1.000000 0.000000 0.000000
vn 0.000000 0.000000 -1.000000
vn 0.000000 0.000000 -1.000000
vn 0.000000 0.000000 -1.000000
vn 0.000000 0.000000 -1.000000
vn -1.000000 0.000000 0.000000
vn -1.000000 0.000000 0.000000
vn -1.000000 0.000000 0.000000
vn -1.000000 0.000000 0.000000
vn -1.000000 0.000000 0.000000
vn -1.000000 0.000000 0.000000
vn -1.000000 0.000000 0.000000
vn -1.000000 0.000000 0.000000
vn 0.000000 0.000000 -1.000000
vn 0.000000 0.000000 -1.000000
vn 0.000000 0.000000 -1.000000
vn 0.000000 0.000000 -1.000000
vn 0.000000 0.000000 -1.000000
vn 1.000000 0.000000 0.000000
vn 1.000000 0.000000 0.000000
vn 1.000000 0.000000 0.000000
vn 1.000000 0.000000 0.000000
vn 0.000000 -1.000000 0.000000
vn 0.000000 -1.000000 0.000000
vn 0.000000 -1.000000 0.000000
vn 0.000000 -1.000000 0.000000
vn 0.000000 0.000000 1.000000
vn 0.000000 0.000000 1.000000
vn 0.000000 0.000000 1.000000
vn 0.000000 0.000000 1.000000
vn 0.000000 0.000000 1.000000
vn 0.000000 1.000000 0.000000
vn 0.000000 1.000000 0.000000
vn 0.000000 1.000000 0.000000
vn 0.000000 1.000000 0.000000
vn 1.000000 0.000000 0.000000
vn 1.000000 0.000000 0.000000
vn 1.000000 0.000000 0.000000
vn 1.000000 0.000000 0.000000
vn -1.000000 0.000000 0.000000
vn -1.000000 0.000000 0.000000
vn -1.000000 0.000000 0.000000
vn -1.000000 0.000000 0.000000
vn 0.000000 -1.000000 0.000000
vn 0.000000 -1.000000 0.000000
vn 0.000000 -1.000000 0.000000
vn 0.000000 -1.000000 0.000000
vn 0.000000 -1.000000 0.000000
vn 0.000000 -1.000000 0.000000
vn 0.000000 -1.000000 0.000000
vn 0.000000 -1.000000 0.000000
vn 0.000000 0.000000 -1.000000
vn 0.000000 0.000000 -1.000000
vn 0.000000 0.000000 -1.000000
vn 0.000000 0.000000 -1.000000
vn 0.000000 0.000000 -1.000000
vn 0.000000 1.000000 0.000000
vn 0.000000 1.000000 0.000000
vn 0.000000 1.000000 0.000000
vn 0.000000 1.000000 0.000000
vn 0.000000 0.000000 1.000000
vn 0.000000 0.000000 1.000000
vn 0.000000 0.000000 1.000000
vn 0.000000 0.000000 1.000000
vn 0.000000 0.000000 1.000000
vn -1.000000 0.000000 0.000000
vn -1.000000 0.000000 0.000000
vn -1.000000 0.000000 0.000000
vn -1.000000 0.000000 0.000000
vn 0.000000 0.000000 1.000000
vn 0.000000 0.000000 1.000000
vn 0.000000 0.000000 1.000000
vn 0.000000 0.000000 1.000000
vn 1.000000 0.000000 0.000000
vn 1.000000 0.000000 0.000000
vn 1.000000 0.000000 0.000000
vn 1.000000 0.000000 0.000000
vn 0.000000 0.000000 -1.000000
vn 0.000000 0.000000 -1.000000
vn 0.000000 0.000000 -1.000000
vn 0.000000 0.000000 -1.000000
vn 1.000000 0.000000 0.000000
vn 1.000000 0.000000 0.000000
vn 1.000000 0.000000 0.000000
vn 1.000000 0.000000 0.000000
vn -1.000000 0.000000 0.000000
vn -1.000000 0.000000 0.000000
vn -1.000000 0.000000 0.000000
vn -1.000000 0.000000 0.000000
vn 0.000000 -1.000000 0.000000
vn 0.000000 -1.000000 0.000000
vn 0.000000 -1.000000 0.000000
vn 0.000000 -1.000000 0.000000
vn 0.000000 -1.000000 0.000000
vn 0.000000 -1.000000 0.000000
vn 0.000000 -1.000000 0.000000
vn 0.000000 -1.000000 0.000000
vn 0.000000 0.000000 -1.000000
vn 0.000000 0.000000 -1.000000
vn 0.000000 0.000000 -1.000000
vn 0.000000 0.000000 -1.000000
vn 0.000000 0.000000 -1.000000
vn 0.000000 1.000000 0.000000
vn 0.000000 1.000000 0.000000
vn 0.000000 1.000000 0.000000
vn 0.000000 1.000000 0.000000
vn 0.000000 0.000000 1.000000
vn 0.000000 0.000000 1.000000
vn 0.000000 0.000000 1.000000
vn 0.000000 0.000000 1.000000
vn 0.000000 0.000000 1.000000
vn -1.000000 0.000000 0.000000
vn -1.000000 0.000000 0.000000
vn -1.000000 0.000000 0.000000
vn -1.000000 0.000000 0.000000
vn 0.000000 0.000000 1.000000
vn 0.000000 0.000000 1.000000
vn 0.000000 0.000000 1.000000
vn 0.000000 0.000000 1.000000
vn 1.000000 0.000000 0.000000
vn 1.000000 0.000000 0.000000
vn 1.000000 0.000000 0.000000
vn 1.000000 0.000000 0.000000
vn 0.000000 0.000000 -1.000000
vn 0.000000 0.000000 -1.000000
vn 0.000000 0.000000 -1.000000
vn 0.000000 0.000000 -1.000000
s off
g T group4
usemtl initialShadingGroup
f 1/1/1 3/2/2 4/3/3 2/4/4
f 1/5/5 2/6/6 10/7/7 7/8/8
f 2/9/9 4/10/10 9/11/11 10/12/12
f 4/13/13 3/14/14 8/15/15 9/16/16
f 3/2/17 1/1/18 7/17/19 8/18/20
f 12/19/21 11/20/22 13/21/23 14/22/24
f 6/23/25 9/16/26 8/15/27 12/24/28 14/25/29
f 10/12/30 9/11/31 6/26/32 5/27/33
f 8/18/34 7/17/35 11/20/36 12/19/37
f 5/28/38 13/29/39 11/30/40 7/8/41 10/7/42
f 6/26/43 14/22/44 13/21/45 5/27/46
f 19/31/47 22/32/48 21/33/49 20/34/50
f 15/35/51 16/36/52 18/37/53 17/38/54
f 17/38/55 24/39/56 23/40/57 15/35/58
f 26/41/59 28/42/60 27/43/61 25/44/62
f 21/45/63 22/46/64 24/47/65 17/48/66 18/49/67
f 20/34/68 21/33/69 18/37/70 16/36/71
f 23/50/72 19/51/73 20/52/74 16/53/75 15/54/76
f 24/39/77 26/55/78 25/56/79 23/40/80
f 23/50/81 25/57/82 27/58/83 19/51/84
f 19/31/85 27/43/86 28/42/87 22/32/88
f 22/46/89 28/59/90 26/60/91 24/47/92
f 33/61/93 36/62/94 35/63/95 34/64/96
f 29/65/97 30/66/98 32/67/99 31/68/100
f 31/68/101 38/69/102 37/70/103 29/65/104
f 40/71/105 42/72/106 41/73/107 39/74/108
f 35/75/109 36/76/110 38/77/111 31/78/112 32/79/113
f 34/64/114 35/63/115 32/67/116 30/66/117
f 37/80/118 33/81/119 34/82/120 30/83/121 29/84/122
f 38/69/123 40/85/124 39/86/125 37/70/126
f 37/80/127 39/87/128 41/88/129 33/81/130
f 33/61/131 41/73/132 42/72/133 36/62/134
f 36/76/135 42/89/136 40/90/137 38/77/138
